<mxfile host="app.diagrams.net" modified="2022-03-15T20:34:44.661Z" agent="5.0 (Windows NT 10.0; Win64; x64) AppleWebKit/537.36 (KHTML, like Gecko) Chrome/99.0.4844.51 Safari/537.36" etag="cI_hKwQ_MAD76ZF4pcOK" version="17.1.2" type="github">
  <diagram id="BOAysAG64PC79tikB3ia" name="Page-1">
    <mxGraphModel dx="1102" dy="624" grid="1" gridSize="10" guides="1" tooltips="1" connect="1" arrows="1" fold="1" page="1" pageScale="1" pageWidth="850" pageHeight="1100" background="#DAD2D8" math="0" shadow="0">
      <root>
        <mxCell id="0" />
        <mxCell id="1" parent="0" />
        <mxCell id="vj0WwWxaVbnnOqgJ8scw-1" value="CircleCiÂ  system" style="swimlane;fillColor=#FAE5C7;strokeColor=#0F8B8D;fontColor=#143642;" vertex="1" parent="1">
          <mxGeometry x="330" y="300" width="200" height="200" as="geometry" />
        </mxCell>
        <mxCell id="vj0WwWxaVbnnOqgJ8scw-3" value="&lt;b&gt;CirclCi API&lt;/b&gt;" style="shape=parallelogram;perimeter=parallelogramPerimeter;whiteSpace=wrap;html=1;fixedSize=1;fillColor=#FAE5C7;strokeColor=#0F8B8D;fontColor=#143642;" vertex="1" parent="vj0WwWxaVbnnOqgJ8scw-1">
          <mxGeometry x="40" y="80" width="120" height="60" as="geometry" />
        </mxCell>
        <mxCell id="vj0WwWxaVbnnOqgJ8scw-2" value="Orchestration" style="swimlane;fillColor=#FAE5C7;strokeColor=#0F8B8D;fontColor=#143642;" vertex="1" parent="1">
          <mxGeometry x="330" y="60" width="200" height="200" as="geometry" />
        </mxCell>
        <mxCell id="vj0WwWxaVbnnOqgJ8scw-4" value="&lt;b&gt;Config.yml&lt;/b&gt;" style="shape=note;whiteSpace=wrap;html=1;backgroundOutline=1;darkOpacity=0.05;size=23;fillColor=#FAE5C7;strokeColor=#0F8B8D;fontColor=#143642;" vertex="1" parent="vj0WwWxaVbnnOqgJ8scw-2">
          <mxGeometry x="30" y="40" width="140" height="130" as="geometry" />
        </mxCell>
        <mxCell id="vj0WwWxaVbnnOqgJ8scw-5" value="" style="shape=image;verticalLabelPosition=bottom;labelBackgroundColor=#DAD2D8;verticalAlign=top;aspect=fixed;imageAspect=0;image=data:image/svg+xml,PHN2ZyB4bWxucz0iaHR0cDovL3d3dy53My5vcmcvMjAwMC9zdmciIHdpZHRoPSIyNTAwIiBoZWlnaHQ9IjIxMDAiIHZpZXdCb3g9IjAgMCAyNTYgMjE1Ij48ZyBmaWxsPSJub25lIiBmaWxsLXJ1bGU9ImV2ZW5vZGQiPjxwYXRoIGQ9Ik0zOC42MTcgMTczLjk4NHYtMTYuMzYyYzAtMi4xNSAxLjM0NC0zLjg3NyAzLjU3LTMuODc3aC42MTZjMi4yMjUgMCAzLjU2MyAxLjcyOSAzLjU2MyAzLjg3N3YzNC40NDdjMCA4LjQtNC4xNSAxNS4wODQtMTEuMzgyIDE5LjM0MmEyMS4zNzQgMjEuMzc0IDAgMCAxLTEwLjk0NSAyLjk4NWgtMS41MzdjLTguNDAyIDAtMTUuMDc3LTQuMTUzLTE5LjM0Mi0xMS4zOGEyMS4zMTQgMjEuMzE0IDAgMCAxLTIuOTg0LTEwLjk0N3YtMS41MzVjMC04LjQwMyA0LjE1Mi0xNS4wODMgMTEuMzc4LTE5LjM0OWEyMS4yOTggMjEuMjk4IDAgMCAxIDEwLjk0OC0yLjk4NWgxLjUzN2M1LjY4NiAwIDEwLjUxIDIuMjA0IDE0LjU3OCA1Ljc4NHpNNy45MjQgMTkxLjNjMCA2LjA2OCAyLjk0MSAxMC42MyA4LjI1OCAxMy41NCAyLjE1IDEuMTc2IDQuNDg0IDEuODA4IDYuOTM3IDEuODA4IDUuOTU2IDAgMTAuMzc0LTIuODEgMTMuNDIxLTcuODU3IDEuNDE3LTIuMzQ4IDIuMDc3LTQuOTE3IDIuMDc3LTcuNjQ4IDAtNS4yNi0yLjQ5LTkuMzY1LTYuNzI5LTEyLjQxNC0yLjU3LTEuODQ4LTUuNDYzLTIuNzc1LTguNjE4LTIuNzc1LTYuNDkyIDAtMTEuMTY0IDMuMjgtMTMuOTY4IDkuMTA2LS45NDYgMS45Ny0xLjM3OCA0LjA2MS0xLjM3OCA2LjI0em02NS4zMjQtMjMuMWgxLjA3NGM4Ljk3OCAwIDE1LjgwNiA0LjM1NSAyMC4xMzMgMTIuMTkyIDEuNzMgMy4xMzUgMi42NTYgNi41NTcgMi42NTYgMTAuMTQydjEuNTM1YzAgOC40LTQuMTQyIDE1LjA5My0xMS4zODUgMTkuMzQzLTMuMzUzIDEuOTY3LTcuMDU3IDIuOTg0LTEwLjk0MyAyLjk4NGgtMS41MzVjLTguNDAyIDAtMTUuMDc5LTQuMTUzLTE5LjM0Mi0xMS4zOGEyMS4zMTYgMjEuMzE2IDAgMCAxLTIuOTg3LTEwLjk0N3YtMS41MzVjMC04LjQwNCA0LjE2OS0xNS4wNjIgMTEuMzc3LTE5LjM0NyAzLjM1MS0xLjk5MSA3LjA1OC0yLjk4NyAxMC45NTItMi45ODd6bS0xNC41OCAyMy4xYzAgNS44OSAyLjg5IDEwLjIyMyA3Ljg2NSAxMy4yNyAyLjMzNiAxLjQzIDQuOTA5IDIuMDc4IDcuNjM4IDIuMDc4IDUuODIgMCAxMC4xMjItMi45NTEgMTMuMTE2LTcuODYzIDEuNDI4LTIuMzQyIDIuMDc0LTQuOTE1IDIuMDc0LTcuNjQyIDAtNS40NzctMi42MzgtOS42NjEtNy4xNDgtMTIuNjkzLTIuNDcxLTEuNjYzLTUuMjIyLTIuNDk2LTguMTk4LTIuNDk2LTYuNDkyIDAtMTEuMTY0IDMuMjgtMTMuOTY3IDkuMTA2LS45NDggMS45Ny0xLjM4IDQuMDYxLTEuMzggNi4yNHptNzAuNjU2LTE0LjcyN2MtMS4xNy0uNTQ4LTMuMzYtLjczLTQuNjI0LS43NzgtNi40NzQtLjI0NC0xMS4xNTggMy40MDItMTMuOTA2IDkuMTEzLS45NDkgMS45Ny0xLjM4MiA0LjA1NS0xLjM4MiA2LjIzNSAwIDYuNjM3IDMuNDg1IDExLjI4NCA5LjQwOSAxNC4xMTcgMi4xNjQgMS4wMzQgNC45NTggMS4yMyA3LjMyMyAxLjIzIDIuMDggMCA1LjAyLTEuMjc0IDYuODY2LTIuMTUxbC4zMi0uMTUyaDEuNDMzbC4xNTguMDMyYzEuNzYyLjM2NyAzLjA5MiAxLjQ4NCAzLjA5MiAzLjM4di43NjdjMCA0LjcxOC04LjYyMiA1Ljc5OC0xMS45MTIgNi4wMjgtMTEuNjEuODAzLTIwLjI5My01LjU3My0yMy42MDMtMTYuNjQ3LS41NzUtMS45MjMtLjgzNC0zLjgzMy0uODM0LTUuODM3di0xLjUzM2MwLTguNDAzIDQuMTctMTUuMDU5IDExLjM3Ny0xOS4zNCAzLjM1MS0xLjk5IDcuMDU3LTIuOTkgMTAuOTUtMi45OWgxLjUzNmM0LjEzIDAgNy45MzQgMS4xNzMgMTEuMzQ0IDMuNTAybC4yOC4xOTQuMTc3LjI5MmMuMzY4LjYxLjY4NSAxLjMxNi42ODUgMi4wNDJ2Ljc2N2MwIDEuOTc4LTEuNDggMy4wNDItMy4yNjYgMy4zODZsLS4xNDguMDI2aC0uNDU4Yy0xLjE1NiAwLTMuNzg1LTEuMTk3LTQuODE3LTEuNjgzem0yNS4xMzQgNS4yNDdjMy4wMS0zLjAxNCA2LjAzLTYuMDIyIDkuMDg1LTguOTg2Ljg1MS0uODI3IDQuMDc0LTQuMzI3IDUuMzQzLTQuMzI3aDEuMzg4bC4xNTguMDMzYzEuNzY4LjM2NyAzLjA5MiAxLjQ4NiAzLjA5MiAzLjM4NnYuNzY2YzAgMS4yOTYtMS41MTggMi44MDItMi4zNTUgMy42ODktMS43OCAxLjg4Ny0zLjY1NCAzLjcxMi01LjQ3NiA1LjU2bC05LjM2MiA5LjUwNGM0LjAzMSA0LjA0IDguMDU4IDguMDgzIDEyLjA1NiAxMi4xNTRhMzEzLjMwNCAzMTMuMzA0IDAgMCAxIDMuMzAxIDMuMzk2Yy4zODUuNDA1Ljk1My45MDkgMS4yNzYgMS40Ny4zNDcuNTI2LjU2IDEuMTE5LjU2IDEuNzUydi44bC0uMDQ1LjE4NWMtLjQzNSAxLjc2OC0xLjU1NyAzLjE5NC0zLjUxNiAzLjE5NGgtLjYxN2MtMS4yODIgMC0yLjczLTEuNDUtMy42MDgtMi4yNzktMS44MS0xLjcwNi0zLjU1Ny0zLjUtNS4zMzEtNS4yNDNsLTUuOTQ5LTUuODR2OS4zMzRjMCAyLjE1LTEuMzQ2IDMuODc4LTMuNTY5IDMuODc4aC0uNjFjLTIuMjI2IDAtMy41Ny0xLjcyOC0zLjU3LTMuODc4di01Mi41OTZjMC0yLjE1IDEuMzQ1LTMuODcgMy41Ny0zLjg3aC42MWMyLjIyMyAwIDMuNTY5IDEuNzIgMy41NjkgMy44N3YyNC4wNDh6bTk2LjU3Ny0xMy4zMTNoLjc3YzIuMzI0IDAgMy44NzUgMS41NjYgMy44NzUgMy44NzcgMCAzLjIwOC0zLjA2NyA0LjAyOS01LjcyIDQuMDI5LTMuNDggMC02LjgwMyAyLjEwNy05LjIwMiA0LjQ3LTIuOTkxIDIuOTQ5LTQuMyA2LjcyNi00LjMgMTAuODc4djE4Ljc1OWMwIDIuMTUtMS4zNDMgMy44NzYtMy41NyAzLjg3NmgtLjYxMmMtMi4yMjcgMC0zLjU2OS0xLjcyNS0zLjU2OS0zLjg3NnYtMTkuODM2YzAtNy42MTcgMy43MDgtMTMuODM1IDkuODktMTguMTk2IDMuNjkxLTIuNjA1IDcuOTE5LTMuOTggMTIuNDM4LTMuOTh6bS01NS4wNzQgMzcuMTc2YzIuODIuOTg1IDYuMDM1Ljg0NCA4LjkyOC4zNCAxLjQ4LS42MjkgNS4yNjQtMi4yOCA2LjY1Ni0yLjAzOGwuMjE3LjAzNy4yLjA5OGMuODUuNDEyIDEuNjYxLjk5NSAyLjA5NSAxLjg2IDEuMDE0IDIuMDI3LjUyNyA0LjA2NS0xLjQ2NSA1LjIxNmwtLjY2My4zODNjLTcuMzUgNC4yNDItMTUuMTY4IDMuNjU0LTIyLjQ5NS0uMzA4LTMuNTAzLTEuODk0LTYuMTgzLTQuNzA1LTguMTYtOC4xMzJsLS40NjItLjgwMWMtNC43MTktOC4xNzItNC4wODItMTYuNzY4IDEuMjQtMjQuNTM5IDEuODM3LTIuNjg2IDQuMjM4LTQuNzYxIDcuMDQ1LTYuMzg0bDEuMDYyLS42MTNjNi45MjItMy45OTYgMTQuMzQxLTMuNzIyIDIxLjQ1LS4yMTUgMy44MjMgMS44ODYgNi45MiA0LjY5NyA5LjA1NCA4LjM5NGwuMzg0LjY2NmMxLjU1IDIuNjg2LS40NTggNS4wMjYtMi41MzEgNi42MjYtMi40MDYgMS44NTYtNC44MzUgNC4wOS03LjE0MSA2LjA4LTUuMTQyIDQuNDM5LTEwLjI3NiA4Ljg4OC0xNS40MTQgMTMuMzN6bS02LjY1NS00LjY3NGM1Ljc1LTQuOTMgMTEuNTAyLTkuODY1IDE3LjIzNy0xNC44MTYgMS45Ni0xLjY5IDQuMTA5LTMuNDQ0IDYuMDUzLTUuMjIxLTEuNTYtMS45NjYtNC4xNjYtMy4zODMtNi4zOC00LjIyOC00LjQ3LTEuNzAzLTguODc3LTEuMTMxLTEyLjk3NiAxLjIzNS01LjM2NSAzLjA5OC03LjY1IDguMDMxLTcuNDUgMTQuMTcuMDggMi40MTguNzMgNC43NDggMi4wMTMgNi44MDUuNDUyLjcyNS45NTcgMS40MDYgMS41MDMgMi4wNTV6TTE0Ny40ODggNDUuNzMyaDIyLjg2NnYyMy4zNzVoMTEuNTYxYzUuMzQgMCAxMC44MzEtLjk1MSAxNS44ODctMi42NjQgMi40ODUtLjg0MyA1LjI3My0yLjAxNSA3LjcyNC0zLjQ5LTMuMjI4LTQuMjE0LTQuODc2LTkuNTM1LTUuMzYtMTQuNzgtLjY2LTcuMTM1Ljc4LTE2LjQyMSA1LjYwOC0yMi4wMDVsMi40MDQtMi43OCAyLjg2NCAyLjMwM2M3LjIxMSA1Ljc5MyAxMy4yNzYgMTMuODg5IDE0LjM0NSAyMy4xMTggOC42ODMtMi41NTQgMTguODc4LTEuOTUgMjYuNTMxIDIuNDY3bDMuMTQgMS44MTItMS42NTIgMy4yMjZDMjQ2LjkzMyA2OC45NDYgMjMzLjQgNzIuODYgMjIwLjE3IDcyLjE2N2MtMTkuNzk3IDQ5LjMwOS02Mi44OTggNzIuNjUzLTExNS4xNTcgNzIuNjUzLTI3IDAtNTEuNzctMTAuMDkzLTY1Ljg3Ni0zNC4wNDdsLS4yMzEtLjM5LTIuMDU1LTQuMTgyYy00Ljc2OC0xMC41NDQtNi4zNTItMjIuMDk1LTUuMjc4LTMzLjYzN2wuMzIzLTMuNDU3SDUxLjQ1VjQ1LjczMmgyMi44NjVWMjIuODY2aDQ1LjczM1YwaDI3LjQ0djQ1LjczMiIgZmlsbD0iIzM2NDU0OCIvPjxwYXRoIGQ9Ik0yMjEuNTcgNTQuMzhjMS41MzMtMTEuOTE2LTcuMzg0LTIxLjI3NS0xMi45MTQtMjUuNzE5LTYuMzczIDcuMzY4LTcuMzYzIDI2LjY3OCAyLjYzNSAzNC44MDgtNS41OCA0Ljk1Ni0xNy4zMzcgOS40NDgtMjkuMzc2IDkuNDQ4SDM1LjM3Yy0xLjE3IDEyLjU2NyAxLjAzNiAyNC4xNCA2LjA3NSAzNC4wNDVsMS42NjcgMy4wNWE1Ni41MzYgNTYuNTM2IDAgMCAwIDMuNDU1IDUuMTg0YzYuMDI1LjM4NyAxMS41OC41MiAxNi42NjIuNDA4aC4wMDJjOS45ODctLjIyIDE4LjEzNi0xLjQgMjQuMzEyLTMuNTRhMS43NjEgMS43NjEgMCAwIDEgMS4xNTMgMy4zMjZjLS44MjIuMjg2LTEuNjc4LjU1Mi0yLjU2Mi44MDVoLS4wMDNjLTQuODYzIDEuMzg5LTEwLjA3OCAyLjMyMy0xNi44MDYgMi43MzguNC4wMDctLjQxNi4wNi0uNDE4LjA2LS4yMjkuMDE1LS41MTcuMDQ4LS43NDcuMDYtMi42NDguMTQ5LTUuNTA2LjE4LTguNDI4LjE4LTMuMTk2IDAtNi4zNDMtLjA2LTkuODYyLS4yNGwtLjA5LjA2YzEyLjIxIDEzLjcyNCAzMS4zMDIgMjEuOTU1IDU1LjIzNCAyMS45NTUgNTAuNjQ4IDAgOTMuNjA4LTIyLjQ1MiAxMTIuNjMyLTcyLjg1NyAxMy40OTYgMS4zODUgMjYuNDY3LTIuMDU3IDMyLjM2Ny0xMy41NzUtOS4zOTgtNS40MjMtMjEuNDg0LTMuNjk0LTI4LjQ0My0uMTk2IiBmaWxsPSIjMjJBMEM4Ii8+PHBhdGggZD0iTTIyMS41NyA1NC4zOGMxLjUzMy0xMS45MTYtNy4zODQtMjEuMjc1LTEyLjkxNC0yNS43MTktNi4zNzMgNy4zNjgtNy4zNjMgMjYuNjc4IDIuNjM1IDM0LjgwOC01LjU4IDQuOTU2LTE3LjMzNyA5LjQ0OC0yOS4zNzYgOS40NDhINDQuMDQ4Yy0uNTk4IDE5LjI0NiA2LjU0NCAzMy44NTUgMTkuMTggNDIuNjg3aC4wMDNjOS45ODctLjIyIDE4LjEzNi0xLjQgMjQuMzEyLTMuNTRhMS43NjEgMS43NjEgMCAwIDEgMS4xNTMgMy4zMjZjLS44MjIuMjg2LTEuNjc4LjU1Mi0yLjU2Mi44MDVoLS4wMDNjLTQuODYzIDEuMzg5LTEwLjUyNiAyLjQ0My0xNy4yNTQgMi44NTgtLjAwMiAwLS4xNjMtLjE1NS0uMTY1LS4xNTUgMTcuMjM3IDguODQyIDQyLjIzIDguODEgNzAuODg1LTIuMTk3IDMyLjEzLTEyLjM0NCA2Mi4wMjktMzUuODYgODIuODktNjIuNzU3LS4zMTQuMTQyLS42Mi4yODctLjkxNy40MzYiIGZpbGw9IiMzN0IxRDkiLz48cGF0aCBkPSJNMzUuNjQ1IDg4LjE4NmMuOTEgNi43MzIgMi44OCAxMy4wMzUgNS44IDE4Ljc3NmwxLjY2NyAzLjA1YTU2LjQzMiA1Ni40MzIgMCAwIDAgMy40NTUgNS4xODRjNi4wMjYuMzg3IDExLjU4MS41MiAxNi42NjQuNDA4IDkuOTg3LS4yMiAxOC4xMzYtMS40IDI0LjMxMi0zLjU0YTEuNzYxIDEuNzYxIDAgMCAxIDEuMTUzIDMuMzI2Yy0uODIyLjI4Ni0xLjY3OC41NTItMi41NjIuODA1aC0uMDAzYy00Ljg2MyAxLjM4OS0xMC40OTYgMi4zODMtMTcuMjI0IDIuNzk5LS4yMzEuMDE0LS42MzQuMDE3LS44NjcuMDMtMi42NDYuMTQ4LTUuNDc1LjIzOS04LjM5OC4yMzktMy4xOTUgMC02LjQ2My0uMDYxLTkuOTgtLjI0IDEyLjIxIDEzLjcyNCAzMS40MiAyMS45ODUgNTUuMzUyIDIxLjk4NSA0My4zNiAwIDgxLjA4NC0xNi40NTggMTAyLjk3OS01Mi44MjJIMzUuNjQ1IiBmaWxsPSIjMUI4MUE1Ii8+PHBhdGggZD0iTTQ1LjM2NyA4OC4xODZjMi41OTIgMTEuODIgOC44MjEgMjEuMDk5IDE3Ljg2NCAyNy40MTggOS45ODctLjIyIDE4LjEzNi0xLjQgMjQuMzEyLTMuNTRhMS43NjEgMS43NjEgMCAwIDEgMS4xNTMgMy4zMjZjLS44MjIuMjg2LTEuNjc4LjU1Mi0yLjU2Mi44MDVoLS4wMDNjLTQuODYzIDEuMzg5LTEwLjYxNSAyLjM4My0xNy4zNDQgMi43OTkgMTcuMjM2IDguODQgNDIuMTU3IDguNzEzIDcwLjgxLTIuMjkzIDE3LjMzNC02LjY2IDM0LjAxNy0xNi41NzQgNDguOTg0LTI4LjUxNUg0NS4zNjciIGZpbGw9IiMxRDkxQjQiLz48cGF0aCBkPSJNNTUuMjYgNDkuNTQzaDE5LjgxOHYxOS44MThINTUuMjZWNDkuNTQzem0xLjY1MSAxLjY1MmgxLjU2NFY2Ny43MWgtMS41NjRWNTEuMTk1em0yLjk0IDBoMS42MjdWNjcuNzFoLTEuNjI2VjUxLjE5NXptMy4wMDIgMGgxLjYyN1Y2Ny43MWgtMS42MjdWNTEuMTk1em0zLjAwNCAwaDEuNjI2VjY3LjcxaC0xLjYyNlY1MS4xOTV6bTMuMDAzIDBoMS42MjZWNjcuNzFINjguODZWNTEuMTk1em0zLjAwMiAwaDEuNTY1VjY3LjcxaC0xLjU2NVY1MS4xOTV6TTc4LjEyNiAyNi42NzdoMTkuODE5djE5LjgxN2gtMTkuODJWMjYuNjc3em0xLjY1MiAxLjY1MmgxLjU2M3YxNi41MTRoLTEuNTYzVjI4LjMyOXptMi45NCAwaDEuNjI2djE2LjUxNGgtMS42MjVWMjguMzI5em0zLjAwMiAwaDEuNjI2djE2LjUxNEg4NS43MlYyOC4zMjl6bTMuMDAzIDBoMS42MjZ2MTYuNTE0aC0xLjYyNlYyOC4zMjl6bTMuMDAzIDBoMS42Mjd2MTYuNTE0aC0xLjYyN1YyOC4zMjl6bTMuMDAyIDBoMS41NjZ2MTYuNTE0aC0xLjU2NlYyOC4zMjl6IiBmaWxsPSIjMjNBM0MyIi8+PHBhdGggZD0iTTc4LjEyNiA0OS41NDNoMTkuODE5djE5LjgxOGgtMTkuODJWNDkuNTQzem0xLjY1MiAxLjY1MmgxLjU2M1Y2Ny43MWgtMS41NjNWNTEuMTk1em0yLjk0IDBoMS42MjZWNjcuNzFoLTEuNjI1VjUxLjE5NXptMy4wMDIgMGgxLjYyNlY2Ny43MUg4NS43MlY1MS4xOTV6bTMuMDAzIDBoMS42MjZWNjcuNzFoLTEuNjI2VjUxLjE5NXptMy4wMDMgMGgxLjYyN1Y2Ny43MWgtMS42MjdWNTEuMTk1em0zLjAwMiAwaDEuNTY2VjY3LjcxaC0xLjU2NlY1MS4xOTV6IiBmaWxsPSIjMzRCQkRFIi8+PHBhdGggZD0iTTEwMC45OTMgNDkuNTQzaDE5LjgxOHYxOS44MThoLTE5LjgxOFY0OS41NDN6bTEuNjUxIDEuNjUyaDEuNTYzVjY3LjcxaC0xLjU2M1Y1MS4xOTV6bTIuOTQgMGgxLjYyNlY2Ny43MWgtMS42MjZWNTEuMTk1em0zLjAwMyAwaDEuNjI2VjY3LjcxaC0xLjYyNlY1MS4xOTV6bTMuMDAzIDBoMS42MjZWNjcuNzFoLTEuNjI2VjUxLjE5NXptMy4wMDIgMGgxLjYyOFY2Ny43MWgtMS42MjhWNTEuMTk1em0zLjAwMyAwaDEuNTY0VjY3LjcxaC0xLjU2NFY1MS4xOTV6IiBmaWxsPSIjMjNBM0MyIi8+PHBhdGggZD0iTTEwMC45OTMgMjYuNjc3aDE5LjgxOHYxOS44MTdoLTE5LjgxOFYyNi42Nzd6bTEuNjUxIDEuNjUyaDEuNTYzdjE2LjUxNGgtMS41NjNWMjguMzI5em0yLjk0IDBoMS42MjZ2MTYuNTE0aC0xLjYyNlYyOC4zMjl6bTMuMDAzIDBoMS42MjZ2MTYuNTE0aC0xLjYyNlYyOC4zMjl6bTMuMDAzIDBoMS42MjZ2MTYuNTE0aC0xLjYyNlYyOC4zMjl6bTMuMDAyIDBoMS42Mjh2MTYuNTE0aC0xLjYyOFYyOC4zMjl6bTMuMDAzIDBoMS41NjR2MTYuNTE0aC0xLjU2NFYyOC4zMjl6TTEyMy44NTkgNDkuNTQzaDE5LjgxOHYxOS44MThoLTE5LjgxOFY0OS41NDN6bTEuNjUyIDEuNjUyaDEuNTYzVjY3LjcxaC0xLjU2M1Y1MS4xOTV6bTIuOTQgMGgxLjYyNlY2Ny43MWgtMS42MjZWNTEuMTk1em0zLjAwMiAwaDEuNjI2VjY3LjcxaC0xLjYyNlY1MS4xOTV6bTMuMDAzIDBoMS42MjdWNjcuNzFoLTEuNjI3VjUxLjE5NXptMy4wMDMgMGgxLjYyN1Y2Ny43MWgtMS42MjdWNTEuMTk1em0zLjAwMyAwaDEuNTY0VjY3LjcxaC0xLjU2NFY1MS4xOTV6IiBmaWxsPSIjMzRCQkRFIi8+PHBhdGggZD0iTTEyMy44NTkgMjYuNjc3aDE5LjgxOHYxOS44MTdoLTE5LjgxOFYyNi42Nzd6bTEuNjUyIDEuNjUyaDEuNTYzdjE2LjUxNGgtMS41NjNWMjguMzI5em0yLjk0IDBoMS42MjZ2MTYuNTE0aC0xLjYyNlYyOC4zMjl6bTMuMDAyIDBoMS42MjZ2MTYuNTE0aC0xLjYyNlYyOC4zMjl6bTMuMDAzIDBoMS42Mjd2MTYuNTE0aC0xLjYyN1YyOC4zMjl6bTMuMDAzIDBoMS42Mjd2MTYuNTE0aC0xLjYyN1YyOC4zMjl6bTMuMDAzIDBoMS41NjR2MTYuNTE0aC0xLjU2NFYyOC4zMjl6IiBmaWxsPSIjMjNBM0MyIi8+PHBhdGggZD0iTTEyMy44NTkgMy44MWgxOS44MThWMjMuNjNoLTE5LjgxOFYzLjgxem0xLjY1MiAxLjY1MWgxLjU2M3YxNi41MTZoLTEuNTYzVjUuNDZ6bTIuOTQgMGgxLjYyNnYxNi41MTZoLTEuNjI2VjUuNDZ6bTMuMDAyIDBoMS42MjZ2MTYuNTE2aC0xLjYyNlY1LjQ2em0zLjAwMyAwaDEuNjI3djE2LjUxNmgtMS42MjdWNS40NnptMy4wMDMgMGgxLjYyN3YxNi41MTZoLTEuNjI3VjUuNDZ6bTMuMDAzIDBoMS41NjR2MTYuNTE2aC0xLjU2NFY1LjQ2eiIgZmlsbD0iIzM0QkJERSIvPjxwYXRoIGQ9Ik0xNDYuNzI1IDQ5LjU0M2gxOS44MTh2MTkuODE4aC0xOS44MThWNDkuNTQzem0xLjY1IDEuNjUyaDEuNTY1VjY3LjcxaC0xLjU2NFY1MS4xOTV6bTIuOTQgMGgxLjYyN1Y2Ny43MWgtMS42MjZWNTEuMTk1em0zLjAwNCAwaDEuNjI3VjY3LjcxaC0xLjYyN1Y1MS4xOTV6bTMuMDAyIDBoMS42MjdWNjcuNzFoLTEuNjI3VjUxLjE5NXptMy4wMDQgMGgxLjYyNlY2Ny43MWgtMS42MjZWNTEuMTk1em0zLjAwMiAwaDEuNTY0VjY3LjcxaC0xLjU2NFY1MS4xOTV6IiBmaWxsPSIjMjNBM0MyIi8+PHBhdGggZD0iTTk2LjcwNCAxMDEuNDkyYTUuNDY4IDUuNDY4IDAgMSAxLS4wMDIgMTAuOTM1IDUuNDY4IDUuNDY4IDAgMCAxIC4wMDItMTAuOTM1IiBmaWxsPSIjRDNFQ0VDIi8+PHBhdGggZD0iTTk2LjcwNCAxMDMuMDQzYy41IDAgLjk3Ny4wOTQgMS40MTcuMjY1YTEuNTk4IDEuNTk4IDAgMCAwIC43OTggMi45OGMuNjA1IDAgMS4xMy0uMzM1IDEuNDAyLS44MzFhMy45MTUgMy45MTUgMCAxIDEtMy42MTctMi40MTRNMCA5MC4xNjJoMjU0LjMyN2MtNS41MzctMS40MDQtMTcuNTItMy4zMDItMTUuNTQ0LTEwLjU2LTEwLjA3IDExLjY1Mi0zNC4zNTMgOC4xNzUtNDAuNDgyIDIuNDMtNi44MjQgOS44OTgtNDYuNTU0IDYuMTM1LTQ5LjMyNS0xLjU3Ni04LjU1NiAxMC4wNDEtMzUuMDY3IDEwLjA0MS00My42MjMgMC0yLjc3MyA3LjcxMS00Mi41MDIgMTEuNDc0LTQ5LjMyNyAxLjU3NS02LjEyOCA1Ljc0Ni0zMC40MSA5LjIyMy00MC40OC0yLjQyOEMxNy41MjIgODYuODYgNS41MzkgODguNzU4IDAgOTAuMTYzIiBmaWxsPSIjMzY0NTQ4Ii8+PHBhdGggZD0iTTExMS4yMzcgMTQwLjg5Yy0xMy41NC02LjQyNS0yMC45NzEtMTUuMTYtMjUuMTA2LTI0LjY5NC01LjAzIDEuNDM1LTExLjA3NSAyLjM1My0xOC4xIDIuNzQ3LTIuNjQ2LjE0OC01LjQzLjIyNC04LjM1LjIyNC0zLjM2OCAwLTYuOTE3LS4xLTEwLjY0My0uMjk3IDEyLjQxNyAxMi40MSAyNy42OTIgMjEuOTY0IDU1Ljk3NiAyMi4xMzggMi4wODggMCA0LjE2LS4wNCA2LjIyMy0uMTE4IiBmaWxsPSIjQkREOUQ3Ii8+PHBhdGggZD0iTTkxLjE2IDEyNC45OTRjLTEuODczLTIuNTQzLTMuNjktNS43MzktNS4wMjYtOC44LTUuMDMgMS40MzctMTEuMDc3IDIuMzU1LTE4LjEwMyAyLjc1IDQuODI2IDIuNjE5IDExLjcyNyA1LjA0NiAyMy4xMyA2LjA1IiBmaWxsPSIjRDNFQ0VDIi8+PC9nPjwvc3ZnPg==;fillColor=#FAE5C7;strokeColor=#0F8B8D;fontColor=#143642;" vertex="1" parent="1">
          <mxGeometry x="365" y="550" width="130" height="109.25" as="geometry" />
        </mxCell>
        <mxCell id="vj0WwWxaVbnnOqgJ8scw-6" value="&lt;b&gt;Orbs CircleCi&lt;/b&gt;" style="shape=datastore;whiteSpace=wrap;html=1;fillColor=#FAE5C7;strokeColor=#0F8B8D;fontColor=#143642;" vertex="1" parent="1">
          <mxGeometry x="600" y="140" width="90" height="80" as="geometry" />
        </mxCell>
        <mxCell id="vj0WwWxaVbnnOqgJ8scw-7" value="&lt;b&gt;Deployment&lt;/b&gt;" style="rounded=1;whiteSpace=wrap;html=1;fillColor=#FAE5C7;strokeColor=#0F8B8D;fontColor=#143642;" vertex="1" parent="1">
          <mxGeometry x="585" y="574.62" width="120" height="60" as="geometry" />
        </mxCell>
        <mxCell id="vj0WwWxaVbnnOqgJ8scw-8" value="GitHub" style="swimlane;fillColor=#FAE5C7;strokeColor=#0F8B8D;fontColor=#143642;" vertex="1" parent="1">
          <mxGeometry y="300" width="200" height="230" as="geometry" />
        </mxCell>
        <mxCell id="vj0WwWxaVbnnOqgJ8scw-11" value="" style="shape=cylinder3;whiteSpace=wrap;html=1;boundedLbl=1;backgroundOutline=1;size=15;fillColor=#FAE5C7;strokeColor=#0F8B8D;fontColor=#143642;" vertex="1" parent="vj0WwWxaVbnnOqgJ8scw-8">
          <mxGeometry x="20" y="30" width="160" height="150" as="geometry" />
        </mxCell>
        <mxCell id="vj0WwWxaVbnnOqgJ8scw-10" value="&lt;b&gt;GitHub&lt;/b&gt;&lt;br&gt;&lt;b&gt;Code&lt;/b&gt;" style="shape=note;whiteSpace=wrap;html=1;backgroundOutline=1;darkOpacity=0.05;fillColor=#FAE5C7;strokeColor=#0F8B8D;fontColor=#143642;" vertex="1" parent="vj0WwWxaVbnnOqgJ8scw-8">
          <mxGeometry x="40" y="70" width="120" height="100" as="geometry" />
        </mxCell>
        <mxCell id="vj0WwWxaVbnnOqgJ8scw-19" value="" style="endArrow=classic;html=1;rounded=0;exitX=1;exitY=0.5;exitDx=0;exitDy=0;exitPerimeter=0;entryX=0;entryY=0.5;entryDx=0;entryDy=0;labelBackgroundColor=#DAD2D8;strokeColor=#A8201A;fontColor=#143642;" edge="1" parent="1" source="vj0WwWxaVbnnOqgJ8scw-11" target="vj0WwWxaVbnnOqgJ8scw-3">
          <mxGeometry relative="1" as="geometry">
            <mxPoint x="60" y="380" as="sourcePoint" />
            <mxPoint x="160" y="380" as="targetPoint" />
          </mxGeometry>
        </mxCell>
        <mxCell id="vj0WwWxaVbnnOqgJ8scw-20" value="&lt;b&gt;Trigger&lt;br&gt;&lt;/b&gt;" style="edgeLabel;resizable=0;html=1;align=center;verticalAlign=middle;labelBackgroundColor=#DAD2D8;fontColor=#143642;" connectable="0" vertex="1" parent="vj0WwWxaVbnnOqgJ8scw-19">
          <mxGeometry relative="1" as="geometry" />
        </mxCell>
        <mxCell id="vj0WwWxaVbnnOqgJ8scw-22" value="" style="endArrow=classic;html=1;rounded=0;exitX=0.5;exitY=0;exitDx=0;exitDy=0;entryX=0.5;entryY=1;entryDx=0;entryDy=0;entryPerimeter=0;labelBackgroundColor=#DAD2D8;strokeColor=#A8201A;fontColor=#143642;" edge="1" parent="1" source="vj0WwWxaVbnnOqgJ8scw-3" target="vj0WwWxaVbnnOqgJ8scw-4">
          <mxGeometry width="50" height="50" relative="1" as="geometry">
            <mxPoint x="100" y="530" as="sourcePoint" />
            <mxPoint x="150" y="480" as="targetPoint" />
          </mxGeometry>
        </mxCell>
        <mxCell id="vj0WwWxaVbnnOqgJ8scw-24" value="" style="endArrow=classic;html=1;rounded=0;exitX=0.5;exitY=1;exitDx=0;exitDy=0;labelBackgroundColor=#DAD2D8;strokeColor=#A8201A;fontColor=#143642;" edge="1" parent="1" source="vj0WwWxaVbnnOqgJ8scw-3" target="vj0WwWxaVbnnOqgJ8scw-5">
          <mxGeometry width="50" height="50" relative="1" as="geometry">
            <mxPoint x="190" y="490" as="sourcePoint" />
            <mxPoint x="240" y="440" as="targetPoint" />
          </mxGeometry>
        </mxCell>
        <mxCell id="vj0WwWxaVbnnOqgJ8scw-25" value="" style="endArrow=classic;html=1;rounded=0;exitX=1;exitY=0.5;exitDx=0;exitDy=0;entryX=0;entryY=0.5;entryDx=0;entryDy=0;labelBackgroundColor=#DAD2D8;strokeColor=#A8201A;fontColor=#143642;" edge="1" parent="1" source="vj0WwWxaVbnnOqgJ8scw-5" target="vj0WwWxaVbnnOqgJ8scw-7">
          <mxGeometry width="50" height="50" relative="1" as="geometry">
            <mxPoint x="550" y="580" as="sourcePoint" />
            <mxPoint x="600" y="530" as="targetPoint" />
          </mxGeometry>
        </mxCell>
        <mxCell id="vj0WwWxaVbnnOqgJ8scw-26" value="" style="endArrow=classic;html=1;rounded=0;entryX=0;entryY=0;entryDx=140;entryDy=76.5;entryPerimeter=0;exitX=0;exitY=0.5;exitDx=0;exitDy=0;labelBackgroundColor=#DAD2D8;strokeColor=#A8201A;fontColor=#143642;" edge="1" parent="1" source="vj0WwWxaVbnnOqgJ8scw-6" target="vj0WwWxaVbnnOqgJ8scw-4">
          <mxGeometry width="50" height="50" relative="1" as="geometry">
            <mxPoint x="590" y="177" as="sourcePoint" />
            <mxPoint x="640" y="120" as="targetPoint" />
          </mxGeometry>
        </mxCell>
      </root>
    </mxGraphModel>
  </diagram>
</mxfile>
